<svg xmlns="http://www.w3.org/2000/svg" fill="none" viewBox="0 0 17 17">
  <path fill="#FF005C" fill-rule="evenodd" d="M11.688 3.172v.16c.92.085 1.836.206 2.746.363a.53.53 0 1 1-.18 1.047l-.149-.025-.712 9.258a2.125 2.125 0 0 1-2.119 1.963H5.726a2.126 2.126 0 0 1-2.118-1.963l-.713-9.258-.148.025a.531.531 0 0 1-.181-1.047 34.4 34.4 0 0 1 2.747-.362v-.161c0-1.108.859-2.054 1.994-2.09a37.304 37.304 0 0 1 2.387 0c1.135.036 1.993.982 1.993 2.09ZM7.34 2.143a36.262 36.262 0 0 1 2.319 0c.533.017.965.466.965 1.029v.08a35.053 35.053 0 0 0-4.25 0v-.08c0-.563.431-1.012.966-1.029ZM7.09 6.354a.531.531 0 1 0-1.063.042l.246 6.375a.531.531 0 1 0 1.062-.042L7.09 6.354Zm3.881.042a.531.531 0 1 0-1.06-.042l-.246 6.375a.532.532 0 0 0 1.062.042l.244-6.375Z" clip-rule="evenodd"/>
</svg>
